<?xml version="1.0" encoding="iso-8859-1"?>
<!-- Uploaded to: SVG Repo, www.svgrepo.com, Generator: SVG Repo Mixer Tools -->
<svg version="1.1" id="Layer_1" xmlns="http://www.w3.org/2000/svg" xmlns:xlink="http://www.w3.org/1999/xlink" 
	 viewBox="0 0 512 512" xml:space="preserve">
<rect id="SVGCleanerId_0" x="7.837" y="152.555" style="fill:#4B92B9;" width="496.327" height="256"/>
<g>
	<rect id="SVGCleanerId_0_1_" x="7.837" y="152.555" style="fill:#4B92B9;" width="496.327" height="256"/>
</g>
<g>
	<path style="fill:#79CAE8;" d="M137.927,408.555H53.29c0-23.374,18.944-42.318,42.318-42.318S137.927,385.181,137.927,408.555z"/>
	<path style="fill:#79CAE8;" d="M458.71,408.555h-84.637c0-23.374,18.944-42.318,42.318-42.318S458.71,385.181,458.71,408.555z"/>
	<circle style="fill:#79CAE8;" cx="95.608" cy="280.555" r="62.694"/>
</g>
<circle style="fill:#FFFFFF;" cx="95.608" cy="280.555" r="31.347"/>
<circle cx="95.608" cy="280.555" r="10.449"/>
<circle style="fill:#79CAE8;" cx="416.392" cy="280.555" r="62.694"/>
<circle style="fill:#FFFFFF;" cx="416.392" cy="280.555" r="31.347"/>
<circle cx="416.392" cy="280.555" r="10.449"/>
<circle style="fill:#4B92B9;" cx="95.608" cy="153.078" r="41.796"/>
<circle style="fill:#FFFFFF;" cx="95.608" cy="153.078" r="15.673"/>
<circle style="fill:#4B92B9;" cx="416.392" cy="153.078" r="41.796"/>
<circle style="fill:#FFFFFF;" cx="416.392" cy="153.078" r="15.673"/>
<rect x="182.857" y="194.873" style="fill:#CAF9F4;" width="146.286" height="125.388"/>
<rect x="182.857" y="268.016" style="fill:#79CAE8;" width="146.286" height="52.245"/>
<rect x="192" y="350.563" style="fill:#FF503D;" width="26.122" height="26.122"/>
<rect x="242.939" y="350.563" style="fill:#CAF9F4;" width="26.122" height="26.122"/>
<rect x="293.878" y="350.563" style="fill:#8EC766;" width="26.122" height="26.122"/>
<path d="M465.307,144.718c-3.987-23.399-24.397-41.273-48.915-41.273c-24.517,0-44.927,17.874-48.915,41.273H144.523
	c-3.987-23.399-24.397-41.273-48.915-41.273s-44.927,17.874-48.915,41.273H0v271.673h512V144.718H465.307z M416.392,119.118
	c18.725,0,33.959,15.235,33.959,33.959s-15.235,33.959-33.959,33.959s-33.959-15.235-33.959-33.959S397.667,119.118,416.392,119.118
	z M95.608,119.118c18.725,0,33.959,15.235,33.959,33.959s-15.235,33.959-33.959,33.959s-33.959-15.235-33.959-33.959
	S76.884,119.118,95.608,119.118z M62.036,400.718c3.559-15.248,17.255-26.645,33.573-26.645s30.014,11.397,33.573,26.645H62.036z
	 M382.819,400.718c3.559-15.248,17.255-26.645,33.573-26.645c16.317,0,30.014,11.397,33.573,26.645H382.819z M496.327,400.718
	H465.93c-3.774-23.946-24.549-42.318-49.539-42.318c-24.99,0-45.764,18.372-49.539,42.318H145.147
	c-3.774-23.946-24.549-42.318-49.539-42.318s-45.764,18.372-49.539,42.318H15.673V160.392h30.845
	c3.547,23.911,24.207,42.318,49.089,42.318s45.542-18.407,49.089-42.318h222.605c3.547,23.911,24.207,42.318,49.089,42.318
	s45.542-18.407,49.089-42.318h30.845V400.718z"/>
<path d="M95.608,210.024c-38.891,0-70.531,31.64-70.531,70.531s31.64,70.531,70.531,70.531s70.531-31.639,70.531-70.531
	S134.499,210.024,95.608,210.024z M95.608,335.412c-30.249,0-54.857-24.608-54.857-54.857s24.608-54.857,54.857-54.857
	s54.857,24.608,54.857,54.857S125.857,335.412,95.608,335.412z"/>
<path d="M95.608,241.371c-21.606,0-39.184,17.577-39.184,39.184s17.577,39.184,39.184,39.184s39.184-17.577,39.184-39.184
	S117.215,241.371,95.608,241.371z M95.608,304.065c-12.964,0-23.51-10.546-23.51-23.51c0-12.964,10.546-23.51,23.51-23.51
	s23.51,10.546,23.51,23.51C119.118,293.519,108.572,304.065,95.608,304.065z"/>
<path d="M416.392,210.024c-38.891,0-70.531,31.64-70.531,70.531s31.639,70.531,70.531,70.531s70.531-31.639,70.531-70.531
	S455.283,210.024,416.392,210.024z M416.392,335.412c-30.249,0-54.857-24.608-54.857-54.857s24.608-54.857,54.857-54.857
	s54.857,24.608,54.857,54.857S446.641,335.412,416.392,335.412z"/>
<path d="M416.392,241.371c-21.606,0-39.184,17.577-39.184,39.184s17.577,39.184,39.184,39.184s39.184-17.577,39.184-39.184
	S437.998,241.371,416.392,241.371z M416.392,304.065c-12.964,0-23.51-10.546-23.51-23.51c0-12.964,10.546-23.51,23.51-23.51
	s23.51,10.546,23.51,23.51C439.902,293.519,429.356,304.065,416.392,304.065z"/>
<path d="M95.608,176.588c12.964,0,23.51-10.546,23.51-23.51s-10.546-23.51-23.51-23.51s-23.51,10.546-23.51,23.51
	S82.644,176.588,95.608,176.588z M95.608,145.241c4.322,0,7.837,3.515,7.837,7.837s-3.515,7.837-7.837,7.837
	c-4.322,0-7.837-3.515-7.837-7.837S91.286,145.241,95.608,145.241z"/>
<path d="M416.392,176.588c12.964,0,23.51-10.546,23.51-23.51s-10.546-23.51-23.51-23.51s-23.51,10.546-23.51,23.51
	S403.428,176.588,416.392,176.588z M416.392,145.241c4.322,0,7.837,3.515,7.837,7.837s-3.515,7.837-7.837,7.837
	s-7.837-3.515-7.837-7.837S412.07,145.241,416.392,145.241z"/>
<polygon points="164.571,111.282 347.429,111.282 347.429,131.657 363.102,131.657 363.102,95.608 148.898,95.608 148.898,131.657 
	164.571,131.657 "/>
<path d="M175.02,328.098H336.98V187.037H175.02V328.098z M190.694,275.853h57.469v36.571h-57.469V275.853z M263.837,312.424v-36.571
	h57.469v36.571H263.837z M321.306,202.71v57.469H190.694V202.71H321.306z"/>
<path d="M184.163,384.522h41.796v-41.796h-41.796V384.522z M199.837,358.4h10.449v10.449h-10.449V358.4z"/>
<path d="M235.102,384.522h41.796v-41.796h-41.796V384.522z M250.775,358.4h10.449v10.449h-10.449V358.4z"/>
<path d="M286.041,384.522h41.796v-41.796h-41.796V384.522z M301.714,358.4h10.449v10.449h-10.449V358.4z"/>
</svg>